<svg width="160" height="57" viewBox="0 0 160 57" fill="none" xmlns="http://www.w3.org/2000/svg">
<mask id="path-1-outside-1_2_790" maskUnits="userSpaceOnUse" x="-0.481934" y="-0.626709" width="160" height="58" fill="black">
<rect fill="white" x="-0.481934" y="-0.626709" width="160" height="58"/>
<path d="M15.4159 52.3573C12.7119 52.3573 10.3372 51.8026 8.29191 50.6933C6.28124 49.584 4.72124 48.0066 3.61191 45.9613C2.53724 43.9506 1.99991 41.5933 1.99991 38.8893C1.99991 37.4333 2.19058 35.804 2.57191 34.0013L4.39191 25.8373H11.3079L9.48791 34.0013C9.31458 34.7986 9.22791 35.4746 9.22791 36.0293C9.22791 37.832 9.79991 39.2706 10.9439 40.3453C12.1226 41.42 13.6652 41.9573 15.5719 41.9573H23.1119C24.4639 41.9573 25.5386 41.7146 26.3359 41.2293L22.8519 18.1413L31.0679 15.1253L34.4999 38.3693C34.6039 39.132 34.6559 39.8773 34.6559 40.6053C34.6559 42.8586 34.1532 44.8693 33.1479 46.6373C32.1426 48.44 30.6692 49.844 28.7279 50.8493C26.7866 51.8546 24.4639 52.3573 21.7599 52.3573H15.4159ZM12.0359 17.1533H19.9399V24.7453H12.0359V17.1533ZM49.0688 42.3733C47.0235 42.3733 45.2035 41.9226 43.6088 41.0213C42.0488 40.12 40.8182 38.8373 39.9168 37.1733C39.0155 35.5093 38.5648 33.568 38.5648 31.3493L38.4608 8.88529L46.5728 6.70129V28.6973C46.5728 29.7026 46.8675 30.5 47.4568 31.0893C48.0462 31.6786 48.8262 31.9733 49.7968 31.9733H51.5128C52.2755 31.9733 52.9342 32.4933 53.4888 33.5333C54.0435 34.5386 54.3208 35.752 54.3208 37.1733C54.3208 38.5946 54.0435 39.8253 53.4888 40.8653C52.9342 41.8706 52.2755 42.3733 51.5128 42.3733H49.0688ZM51.5063 42.3733C50.7437 42.3733 50.085 41.8706 49.5303 40.8653C48.9757 39.8253 48.6983 38.5946 48.6983 37.1733C48.6983 35.752 48.9757 34.5386 49.5303 33.5333C50.085 32.4933 50.7437 31.9733 51.5063 31.9733H64.8183C65.581 31.9733 66.2397 32.4933 66.7943 33.5333C67.349 34.5386 67.6263 35.752 67.6263 37.1733C67.6263 38.5946 67.349 39.8253 66.7943 40.8653C66.2397 41.8706 65.581 42.3733 64.8183 42.3733H51.5063ZM96.895 31.9733C97.6577 31.9733 98.3164 32.4933 98.871 33.5333C99.4257 34.5386 99.703 35.752 99.703 37.1733C99.703 38.5946 99.4257 39.8253 98.871 40.8653C98.3164 41.8706 97.6577 42.3733 96.895 42.3733H96.115C94.4164 42.3733 92.839 42.0093 91.383 41.2813C89.927 40.5186 88.731 39.4786 87.795 38.1613L86.703 39.7733C85.4897 41.5066 83.843 42.3733 81.763 42.3733H64.811C64.0484 42.3733 63.3897 41.8706 62.835 40.8653C62.2804 39.8253 62.003 38.5946 62.003 37.1733C62.003 35.752 62.2804 34.5386 62.835 33.5333C63.3897 32.4933 64.0484 31.9733 64.811 31.9733H84.467L84.415 31.4013L83.947 28.8013C83.8084 28.108 83.5137 27.5706 83.063 27.1893C82.6124 26.7733 82.0577 26.5653 81.399 26.5653H68.919L65.019 17.9333L64.967 17.9853L62.731 12.9933L70.947 5.14129L72.923 9.14529L78.903 3.32129L82.959 11.2253L75.575 17.9853H82.751C85.039 17.9853 86.9804 18.644 88.575 19.9613C90.1697 21.2786 91.1577 23.0466 91.539 25.2653L92.267 29.3733C92.371 30.136 92.7004 30.76 93.255 31.2453C93.8097 31.7306 94.5377 31.9733 95.439 31.9733H96.895ZM96.9048 42.3733C96.1421 42.3733 95.4835 41.8706 94.9288 40.8653C94.3741 39.8253 94.0968 38.5946 94.0968 37.1733C94.0968 35.752 94.3741 34.5386 94.9288 33.5333C95.4835 32.4933 96.1421 31.9733 96.9048 31.9733H110.217C110.979 31.9733 111.638 32.4933 112.193 33.5333C112.747 34.5386 113.025 35.752 113.025 37.1733C113.025 38.5946 112.747 39.8253 112.193 40.8653C111.638 41.8706 110.979 42.3733 110.217 42.3733H96.9048ZM110.157 42.3733C109.395 42.3733 108.736 41.8706 108.181 40.8653C107.627 39.8253 107.349 38.5946 107.349 37.1733C107.349 35.752 107.627 34.5386 108.181 33.5333C108.736 32.4933 109.395 31.9733 110.157 31.9733H115.097C116.727 31.9733 118.113 31.7653 119.257 31.3493L115.981 16.2693L123.885 12.4213L126.849 25.9933C127.161 27.38 127.317 28.6973 127.317 29.9453C127.317 32.4066 126.78 34.5906 125.705 36.4973C124.631 38.3693 123.123 39.8253 121.181 40.8653C119.275 41.8706 117.073 42.3733 114.577 42.3733H110.157ZM109.377 47.3653H125.029V54.3853H109.377V47.3653ZM130.73 8.88529L138.842 6.70129V41.3853L130.73 43.6213V8.88529ZM146.964 40.3453L149.408 39.3573V17.2573L157.104 15.7493V38.5253C157.104 41.1253 156.48 43.3786 155.232 45.2853C153.984 47.2266 152.268 48.648 150.084 49.5493L142.908 52.5133L138.644 43.7773L146.964 40.3453Z"/>
</mask>
<path d="M8.29191 50.6933L7.32576 52.4444L7.33206 52.4479L7.33838 52.4514L8.29191 50.6933ZM3.61191 45.9613L1.84801 46.9041L1.85385 46.9148L3.61191 45.9613ZM2.57191 34.0013L0.619829 33.5661L0.617462 33.5767L0.615211 33.5874L2.57191 34.0013ZM4.39191 25.8373V23.8373H2.78868L2.43983 25.4021L4.39191 25.8373ZM11.3079 25.8373L13.26 26.2725L13.8029 23.8373H11.3079V25.8373ZM9.48791 34.0013L7.5358 33.5661L7.53356 33.5764L9.48791 34.0013ZM10.9439 40.3453L9.57456 41.803L9.58541 41.8132L9.5964 41.8232L10.9439 40.3453ZM26.3359 41.2293L27.3758 42.9377L28.512 42.2461L28.3135 40.9309L26.3359 41.2293ZM22.8519 18.1413L22.1627 16.2638L20.6308 16.8261L20.8743 18.4397L22.8519 18.1413ZM31.0679 15.1253L33.0465 14.8332L32.6873 12.4003L30.3787 13.2478L31.0679 15.1253ZM34.4999 38.3693L36.4816 38.0991L36.4801 38.0881L36.4785 38.0772L34.4999 38.3693ZM33.1479 46.6373L31.4093 45.6487L31.4052 45.6559L31.4012 45.6632L33.1479 46.6373ZM28.7279 50.8493L27.8082 49.0733H27.8082L28.7279 50.8493ZM12.0359 17.1533V15.1533H10.0359V17.1533H12.0359ZM19.9399 17.1533H21.9399V15.1533H19.9399V17.1533ZM19.9399 24.7453V26.7453H21.9399V24.7453H19.9399ZM12.0359 24.7453H10.0359V26.7453H12.0359V24.7453ZM15.4159 52.3573V50.3573C12.9906 50.3573 10.9538 49.8618 9.24544 48.9352L8.29191 50.6933L7.33838 52.4514C9.72073 53.7435 12.4332 54.3573 15.4159 54.3573V52.3573ZM8.29191 50.6933L9.25807 48.9421C7.58686 48.0201 6.29957 46.7217 5.36997 45.0078L3.61191 45.9613L1.85385 46.9148C3.14292 49.2915 4.97563 51.1478 7.32576 52.4444L8.29191 50.6933ZM3.61191 45.9613L5.37577 45.0185C4.48258 43.3474 3.99991 41.3255 3.99991 38.8893H1.99991H-8.96454e-05C-8.96454e-05 41.8611 0.591908 44.5539 1.84805 46.904L3.61191 45.9613ZM1.99991 38.8893H3.99991C3.99991 37.6033 4.16886 36.1158 4.52861 34.4152L2.57191 34.0013L0.615211 33.5874C0.21229 35.4921 -8.96454e-05 37.2632 -8.96454e-05 38.8893H1.99991ZM2.57191 34.0013L4.52399 34.4365L6.34399 26.2725L4.39191 25.8373L2.43983 25.4021L0.619829 33.5661L2.57191 34.0013ZM4.39191 25.8373V27.8373H11.3079V25.8373V23.8373H4.39191V25.8373ZM11.3079 25.8373L9.35583 25.4021L7.53583 33.5661L9.48791 34.0013L11.44 34.4365L13.26 26.2725L11.3079 25.8373ZM9.48791 34.0013L7.53356 33.5764C7.34266 34.4546 7.22791 35.2821 7.22791 36.0293H9.22791H11.2279C11.2279 35.6672 11.2865 35.1427 11.4423 34.4262L9.48791 34.0013ZM9.22791 36.0293H7.22791C7.22791 38.2942 7.96704 40.2929 9.57456 41.803L10.9439 40.3453L12.3133 38.8876C11.6328 38.2484 11.2279 37.3697 11.2279 36.0293H9.22791ZM10.9439 40.3453L9.5964 41.8232C11.2131 43.2972 13.2696 43.9573 15.5719 43.9573V41.9573V39.9573C14.0609 39.9573 13.0321 39.5427 12.2914 38.8674L10.9439 40.3453ZM15.5719 41.9573V43.9573H23.1119V41.9573V39.9573H15.5719V41.9573ZM23.1119 41.9573V43.9573C24.6757 43.9573 26.1549 43.6808 27.3758 42.9377L26.3359 41.2293L25.296 39.5209C24.9222 39.7484 24.2521 39.9573 23.1119 39.9573V41.9573ZM26.3359 41.2293L28.3135 40.9309L24.8295 17.8429L22.8519 18.1413L20.8743 18.4397L24.3583 41.5277L26.3359 41.2293ZM22.8519 18.1413L23.5411 20.0188L31.7571 17.0028L31.0679 15.1253L30.3787 13.2478L22.1627 16.2638L22.8519 18.1413ZM31.0679 15.1253L29.0894 15.4174L32.5214 38.6614L34.4999 38.3693L36.4785 38.0772L33.0465 14.8332L31.0679 15.1253ZM34.4999 38.3693L32.5182 38.6395C32.6107 39.3177 32.6559 39.9727 32.6559 40.6053H34.6559H36.6559C36.6559 39.7819 36.5971 38.9462 36.4816 38.0991L34.4999 38.3693ZM34.6559 40.6053H32.6559C32.6559 42.5503 32.2253 44.2136 31.4093 45.6487L33.1479 46.6373L34.8865 47.6259C36.0811 45.525 36.6559 43.167 36.6559 40.6053H34.6559ZM33.1479 46.6373L31.4012 45.6632C30.5985 47.1025 29.4229 48.2371 27.8082 49.0733L28.7279 50.8493L29.6476 52.6253C31.9156 51.4508 33.6867 49.7774 34.8946 47.6114L33.1479 46.6373ZM28.7279 50.8493L27.8082 49.0733C26.2106 49.9006 24.2183 50.3573 21.7599 50.3573V52.3573V54.3573C24.7095 54.3573 27.3625 53.8086 29.6476 52.6253L28.7279 50.8493ZM21.7599 52.3573V50.3573H15.4159V52.3573V54.3573H21.7599V52.3573ZM12.0359 17.1533V19.1533H19.9399V17.1533V15.1533H12.0359V17.1533ZM19.9399 17.1533H17.9399V24.7453H19.9399H21.9399V17.1533H19.9399ZM19.9399 24.7453V22.7453H12.0359V24.7453V26.7453H19.9399V24.7453ZM12.0359 24.7453H14.0359V17.1533H12.0359H10.0359V24.7453H12.0359ZM43.6088 41.0213L42.6083 42.753L42.6165 42.7578L42.6247 42.7624L43.6088 41.0213ZM38.5648 31.3493L40.5649 31.3493L40.5648 31.34L38.5648 31.3493ZM38.4608 8.88529L37.9409 6.95406L36.4537 7.35445L36.4609 8.89455L38.4608 8.88529ZM46.5728 6.70129H48.5728V4.09161L46.0529 4.77006L46.5728 6.70129ZM53.4888 33.5333L51.7241 34.4745L51.7308 34.487L51.7377 34.4994L53.4888 33.5333ZM53.4888 40.8653L55.24 41.8314L55.2469 41.819L55.2536 41.8065L53.4888 40.8653ZM49.0688 42.3733V40.3733C47.3273 40.3733 45.8536 39.9927 44.593 39.2802L43.6088 41.0213L42.6247 42.7624C44.5535 43.8526 46.7197 44.3733 49.0688 44.3733V42.3733ZM43.6088 41.0213L44.6094 39.2896C43.3856 38.5825 42.4101 37.5771 41.6754 36.2207L39.9168 37.1733L38.1583 38.1259C39.2262 40.0975 40.7121 41.6574 42.6083 42.753L43.6088 41.0213ZM39.9168 37.1733L41.6754 36.2207C40.9578 34.8959 40.5648 33.2928 40.5648 31.3493H38.5648H36.5648C36.5648 33.8431 37.0732 36.1226 38.1583 38.1259L39.9168 37.1733ZM38.5648 31.3493L40.5648 31.34L40.4608 8.87603L38.4608 8.88529L36.4609 8.89455L36.5649 31.3585L38.5648 31.3493ZM38.4608 8.88529L38.9808 10.8165L47.0928 8.63252L46.5728 6.70129L46.0529 4.77006L37.9409 6.95406L38.4608 8.88529ZM46.5728 6.70129H44.5728V28.6973H46.5728H48.5728V6.70129H46.5728ZM46.5728 28.6973H44.5728C44.5728 30.1162 45.0029 31.4638 46.0426 32.5035L47.4568 31.0893L48.8711 29.6751C48.7321 29.5361 48.5728 29.2891 48.5728 28.6973H46.5728ZM47.4568 31.0893L46.0426 32.5035C47.0689 33.5297 48.3901 33.9733 49.7968 33.9733V31.9733V29.9733C49.2623 29.9733 49.0235 29.8275 48.8711 29.6751L47.4568 31.0893ZM49.7968 31.9733V33.9733H51.5128V31.9733V29.9733H49.7968V31.9733ZM51.5128 31.9733V33.9733C51.471 33.9733 51.4224 33.9652 51.3782 33.949C51.3362 33.9337 51.3234 33.9203 51.3396 33.9331C51.3834 33.9676 51.5278 34.1063 51.7241 34.4745L53.4888 33.5333L55.2536 32.5921C54.5578 31.2876 53.3684 29.9733 51.5128 29.9733V31.9733ZM53.4888 33.5333L51.7377 34.4994C52.0947 35.1464 52.3208 36.0105 52.3208 37.1733H54.3208H56.3208C56.3208 35.4934 55.9924 33.9308 55.24 32.5671L53.4888 33.5333ZM54.3208 37.1733H52.3208C52.3208 38.3335 52.0956 39.2277 51.7241 39.9241L53.4888 40.8653L55.2536 41.8065C55.9915 40.4229 56.3208 38.8558 56.3208 37.1733H54.3208ZM53.4888 40.8653L51.7377 39.8991C51.546 40.2465 51.4065 40.3751 51.3655 40.4064C51.3502 40.4181 51.3613 40.4067 51.3985 40.3935C51.4376 40.3797 51.4791 40.3733 51.5128 40.3733V42.3733V44.3733C53.3334 44.3733 54.5282 43.1216 55.24 41.8314L53.4888 40.8653ZM51.5128 42.3733V40.3733H49.0688V42.3733V44.3733H51.5128V42.3733ZM49.5303 40.8653L47.7656 41.8065L47.7723 41.819L47.7792 41.8314L49.5303 40.8653ZM49.5303 33.5333L51.2815 34.4994L51.2884 34.487L51.2951 34.4745L49.5303 33.5333ZM66.7943 33.5333L65.0296 34.4745L65.0363 34.487L65.0432 34.4994L66.7943 33.5333ZM66.7943 40.8653L68.5455 41.8314L68.5524 41.819L68.5591 41.8065L66.7943 40.8653ZM51.5063 42.3733V40.3733C51.5401 40.3733 51.5816 40.3797 51.6207 40.3935C51.6579 40.4067 51.669 40.4181 51.6537 40.4064C51.6127 40.3751 51.4732 40.2465 51.2815 39.8991L49.5303 40.8653L47.7792 41.8314C48.491 43.1216 49.6858 44.3733 51.5063 44.3733V42.3733ZM49.5303 40.8653L51.2951 39.9241C50.9236 39.2277 50.6983 38.3335 50.6983 37.1733H48.6983H46.6983C46.6983 38.8558 47.0277 40.4229 47.7656 41.8065L49.5303 40.8653ZM48.6983 37.1733H50.6983C50.6983 36.0105 50.9245 35.1464 51.2815 34.4994L49.5303 33.5333L47.7792 32.5671C47.0268 33.9308 46.6983 35.4934 46.6983 37.1733H48.6983ZM49.5303 33.5333L51.2951 34.4745C51.4914 34.1063 51.6358 33.9676 51.6796 33.9331C51.6958 33.9203 51.683 33.9337 51.641 33.949C51.5968 33.9652 51.5482 33.9733 51.5063 33.9733V31.9733V29.9733C49.6508 29.9733 48.4614 31.2876 47.7656 32.5921L49.5303 33.5333ZM51.5063 31.9733V33.9733H64.8183V31.9733V29.9733H51.5063V31.9733ZM64.8183 31.9733V33.9733C64.7765 33.9733 64.7279 33.9652 64.6837 33.949C64.6417 33.9337 64.6289 33.9203 64.6451 33.9331C64.6889 33.9676 64.8333 34.1063 65.0296 34.4745L66.7943 33.5333L68.5591 32.5921C67.8633 31.2876 66.6739 29.9733 64.8183 29.9733V31.9733ZM66.7943 33.5333L65.0432 34.4994C65.4002 35.1464 65.6264 36.0105 65.6264 37.1733H67.6264H69.6264C69.6264 35.4934 69.2979 33.9308 68.5455 32.5671L66.7943 33.5333ZM67.6264 37.1733H65.6264C65.6264 38.3335 65.4011 39.2277 65.0296 39.9241L66.7943 40.8653L68.5591 41.8065C69.297 40.4229 69.6264 38.8558 69.6264 37.1733H67.6264ZM66.7943 40.8653L65.0432 39.8991C64.8515 40.2465 64.712 40.3751 64.671 40.4064C64.6557 40.4181 64.6668 40.4067 64.704 40.3935C64.7431 40.3797 64.7846 40.3733 64.8183 40.3733V42.3733V44.3733C66.6389 44.3733 67.8337 43.1216 68.5455 41.8314L66.7943 40.8653ZM64.8183 42.3733V40.3733H51.5063V42.3733V44.3733H64.8183V42.3733ZM98.871 33.5333L97.1063 34.4745L97.113 34.487L97.1199 34.4994L98.871 33.5333ZM98.871 40.8653L100.622 41.8314L100.629 41.819L100.636 41.8065L98.871 40.8653ZM91.383 41.2813L90.455 43.053L90.4717 43.0617L90.4886 43.0701L91.383 41.2813ZM87.795 38.1613L89.4254 37.0029L87.7558 34.6531L86.1392 37.0396L87.795 38.1613ZM86.703 39.7733L88.3415 40.9202L88.3503 40.9077L88.3589 40.895L86.703 39.7733ZM62.835 40.8653L61.0703 41.8065L61.077 41.819L61.0839 41.8314L62.835 40.8653ZM62.835 33.5333L64.5862 34.4994L64.5931 34.487L64.5997 34.4745L62.835 33.5333ZM84.467 31.9733V33.9733H86.6571L86.4588 31.7922L84.467 31.9733ZM84.415 31.4013L86.4068 31.2202L86.3989 31.1331L86.3834 31.047L84.415 31.4013ZM83.947 28.8013L85.9154 28.447L85.912 28.428L85.9082 28.4091L83.947 28.8013ZM83.063 27.1893L81.7065 28.6589L81.7382 28.6882L81.7711 28.7161L83.063 27.1893ZM68.919 26.5653L67.0964 27.3888L67.628 28.5653H68.919V26.5653ZM65.019 17.9333L66.8416 17.1098L65.6505 14.4734L63.6048 16.5191L65.019 17.9333ZM64.967 17.9853L63.1418 18.8029L64.3285 21.4523L66.3813 19.3995L64.967 17.9853ZM62.731 12.9933L61.3492 11.5474L60.3288 12.5227L60.9058 13.8109L62.731 12.9933ZM70.947 5.14129L72.7405 4.25619L71.5348 1.81306L69.5652 3.69541L70.947 5.14129ZM72.923 9.14529L71.1295 10.0304L72.3472 12.4978L74.3184 10.5781L72.923 9.14529ZM78.903 3.32129L80.6824 2.40818L79.4467 4.95911e-05L77.5076 1.88851L78.903 3.32129ZM82.959 11.2253L84.3095 12.7005L85.4352 11.67L84.7384 10.3122L82.959 11.2253ZM75.575 17.9853L74.2245 16.5101L70.4286 19.9853H75.575V17.9853ZM88.575 19.9613L89.8488 18.4194V18.4194L88.575 19.9613ZM91.539 25.2653L89.5679 25.6041L89.5697 25.6143L91.539 25.2653ZM92.267 29.3733L94.2487 29.1031L94.2433 29.0636L94.2364 29.0243L92.267 29.3733ZM93.255 31.2453L94.5721 29.7401L94.572 29.7401L93.255 31.2453ZM96.895 31.9733V33.9733C96.8532 33.9733 96.8046 33.9652 96.7604 33.949C96.7184 33.9337 96.7056 33.9203 96.7217 33.9331C96.7655 33.9676 96.91 34.1063 97.1063 34.4745L98.871 33.5333L100.636 32.5921C99.94 31.2876 98.7506 29.9733 96.895 29.9733V31.9733ZM98.871 33.5333L97.1199 34.4994C97.4768 35.1464 97.703 36.0105 97.703 37.1733H99.703H101.703C101.703 35.4934 101.375 33.9308 100.622 32.5671L98.871 33.5333ZM99.703 37.1733H97.703C97.703 38.3335 97.4777 39.2277 97.1063 39.9241L98.871 40.8653L100.636 41.8065C101.374 40.4229 101.703 38.8558 101.703 37.1733H99.703ZM98.871 40.8653L97.1199 39.8991C96.9282 40.2465 96.7887 40.3751 96.7477 40.4064C96.7324 40.4181 96.7434 40.4067 96.7807 40.3935C96.8197 40.3797 96.8613 40.3733 96.895 40.3733V42.3733V44.3733C98.7156 44.3733 99.9104 43.1216 100.622 41.8314L98.871 40.8653ZM96.895 42.3733V40.3733H96.115V42.3733V44.3733H96.895V42.3733ZM96.115 42.3733V40.3733C94.7129 40.3733 93.4436 40.0755 92.2775 39.4924L91.383 41.2813L90.4886 43.0701C92.2345 43.9431 94.1198 44.3733 96.115 44.3733V42.3733ZM91.383 41.2813L92.3111 39.5096C91.1292 38.8906 90.1757 38.0588 89.4254 37.0029L87.795 38.1613L86.1647 39.3197C87.2864 40.8985 88.7248 42.1467 90.455 43.053L91.383 41.2813ZM87.795 38.1613L86.1392 37.0396L85.0472 38.6516L86.703 39.7733L88.3589 40.895L89.4509 39.283L87.795 38.1613ZM86.703 39.7733L85.0646 38.6264C84.2178 39.836 83.1771 40.3733 81.763 40.3733V42.3733V44.3733C84.509 44.3733 86.7616 43.1772 88.3415 40.9202L86.703 39.7733ZM81.763 42.3733V40.3733H64.811V42.3733V44.3733H81.763V42.3733ZM64.811 42.3733V40.3733C64.8448 40.3733 64.8863 40.3797 64.9254 40.3935C64.9626 40.4067 64.9737 40.4181 64.9584 40.4064C64.9174 40.3751 64.7778 40.2465 64.5862 39.8991L62.835 40.8653L61.0839 41.8314C61.7957 43.1216 62.9905 44.3733 64.811 44.3733V42.3733ZM62.835 40.8653L64.5997 39.9241C64.2283 39.2277 64.003 38.3335 64.003 37.1733H62.003H60.003C60.003 38.8558 60.3324 40.4229 61.0703 41.8065L62.835 40.8653ZM62.003 37.1733H64.003C64.003 36.0105 64.2292 35.1464 64.5862 34.4994L62.835 33.5333L61.0839 32.5671C60.3315 33.9308 60.003 35.4934 60.003 37.1733H62.003ZM62.835 33.5333L64.5997 34.4745C64.7961 34.1063 64.9405 33.9676 64.9843 33.9331C65.0005 33.9203 64.9877 33.9337 64.9457 33.949C64.9015 33.9652 64.8529 33.9733 64.811 33.9733V31.9733V29.9733C62.9555 29.9733 61.766 31.2876 61.0703 32.5921L62.835 33.5333ZM64.811 31.9733V33.9733H84.467V31.9733V29.9733H64.811V31.9733ZM84.467 31.9733L86.4588 31.7922L86.4068 31.2202L84.415 31.4013L82.4232 31.5824L82.4753 32.1544L84.467 31.9733ZM84.415 31.4013L86.3834 31.047L85.9154 28.447L83.947 28.8013L81.9787 29.1556L82.4467 31.7556L84.415 31.4013ZM83.947 28.8013L85.9082 28.4091C85.6991 27.3636 85.215 26.3902 84.3549 25.6625L83.063 27.1893L81.7711 28.7161C81.8124 28.751 81.9176 28.8523 81.9859 29.1935L83.947 28.8013ZM83.063 27.1893L84.4196 25.7197C83.5707 24.9361 82.5199 24.5653 81.399 24.5653V26.5653V28.5653C81.5955 28.5653 81.6541 28.6105 81.7065 28.6589L83.063 27.1893ZM81.399 26.5653V24.5653H68.919V26.5653V28.5653H81.399V26.5653ZM68.919 26.5653L70.7416 25.7418L66.8416 17.1098L65.019 17.9333L63.1964 18.7568L67.0964 27.3888L68.919 26.5653ZM65.019 17.9333L63.6048 16.5191L63.5528 16.5711L64.967 17.9853L66.3813 19.3995L66.4333 19.3475L65.019 17.9333ZM64.967 17.9853L66.7923 17.1677L64.5563 12.1757L62.731 12.9933L60.9058 13.8109L63.1418 18.8029L64.967 17.9853ZM62.731 12.9933L64.1129 14.4392L72.3289 6.58717L70.947 5.14129L69.5652 3.69541L61.3492 11.5474L62.731 12.9933ZM70.947 5.14129L69.1535 6.02639L71.1295 10.0304L72.923 9.14529L74.7165 8.26019L72.7405 4.25619L70.947 5.14129ZM72.923 9.14529L74.3184 10.5781L80.2984 4.75407L78.903 3.32129L77.5076 1.88851L71.5276 7.71251L72.923 9.14529ZM78.903 3.32129L77.1236 4.2344L81.1796 12.1384L82.959 11.2253L84.7384 10.3122L80.6824 2.40818L78.903 3.32129ZM82.959 11.2253L81.6085 9.75012L74.2245 16.5101L75.575 17.9853L76.9255 19.4605L84.3095 12.7005L82.959 11.2253ZM75.575 17.9853V19.9853H82.751V17.9853V15.9853H75.575V17.9853ZM82.751 17.9853V19.9853C84.6268 19.9853 86.1036 20.5139 87.3013 21.5032L88.575 19.9613L89.8488 18.4194C87.8571 16.774 85.4513 15.9853 82.751 15.9853V17.9853ZM88.575 19.9613L87.3013 21.5032C88.4934 22.488 89.2599 23.8121 89.5679 25.6041L91.539 25.2653L93.5101 24.9265C93.0555 22.2812 91.846 20.0692 89.8488 18.4194L88.575 19.9613ZM91.539 25.2653L89.5697 25.6143L90.2977 29.7223L92.267 29.3733L94.2364 29.0243L93.5083 24.9163L91.539 25.2653ZM92.267 29.3733L90.2854 29.6435C90.4514 30.8614 91.0028 31.9321 91.938 32.7504L93.255 31.2453L94.572 29.7401C94.3979 29.5878 94.2906 29.4105 94.2487 29.1031L92.267 29.3733ZM93.255 31.2453L91.938 32.7504C92.934 33.6219 94.1659 33.9733 95.439 33.9733V31.9733V29.9733C94.9095 29.9733 94.6854 29.8394 94.5721 29.7401L93.255 31.2453ZM95.439 31.9733V33.9733H96.895V31.9733V29.9733H95.439V31.9733ZM94.9288 40.8653L93.1641 41.8065L93.1708 41.819L93.1776 41.8314L94.9288 40.8653ZM94.9288 33.5333L96.6799 34.4994L96.6868 34.487L96.6935 34.4745L94.9288 33.5333ZM112.193 33.5333L110.428 34.4745L110.435 34.487L110.442 34.4994L112.193 33.5333ZM112.193 40.8653L113.944 41.8314L113.951 41.819L113.957 41.8065L112.193 40.8653ZM96.9048 42.3733V40.3733C96.9386 40.3733 96.9801 40.3797 97.0191 40.3935C97.0564 40.4067 97.0675 40.4181 97.0521 40.4064C97.0111 40.3751 96.8716 40.2465 96.6799 39.8991L94.9288 40.8653L93.1776 41.8314C93.8895 43.1216 95.0842 44.3733 96.9048 44.3733V42.3733ZM94.9288 40.8653L96.6935 39.9241C96.3221 39.2277 96.0968 38.3335 96.0968 37.1733H94.0968H92.0968C92.0968 38.8558 92.4262 40.4229 93.1641 41.8065L94.9288 40.8653ZM94.0968 37.1733H96.0968C96.0968 36.0105 96.323 35.1464 96.6799 34.4994L94.9288 33.5333L93.1776 32.5671C92.4253 33.9308 92.0968 35.4934 92.0968 37.1733H94.0968ZM94.9288 33.5333L96.6935 34.4745C96.8898 34.1063 97.0343 33.9676 97.0781 33.9331C97.0942 33.9203 97.0815 33.9337 97.0395 33.949C96.9952 33.9652 96.9467 33.9733 96.9048 33.9733V31.9733V29.9733C95.0492 29.9733 93.8598 31.2876 93.1641 32.5921L94.9288 33.5333ZM96.9048 31.9733V33.9733H110.217V31.9733V29.9733H96.9048V31.9733ZM110.217 31.9733V33.9733C110.175 33.9733 110.126 33.9652 110.082 33.949C110.04 33.9337 110.027 33.9203 110.043 33.9331C110.087 33.9676 110.232 34.1063 110.428 34.4745L112.193 33.5333L113.957 32.5921C113.262 31.2876 112.072 29.9733 110.217 29.9733V31.9733ZM112.193 33.5333L110.442 34.4994C110.799 35.1464 111.025 36.0105 111.025 37.1733H113.025H115.025C115.025 35.4934 114.696 33.9308 113.944 32.5671L112.193 33.5333ZM113.025 37.1733H111.025C111.025 38.3335 110.799 39.2277 110.428 39.9241L112.193 40.8653L113.957 41.8065C114.695 40.4229 115.025 38.8558 115.025 37.1733H113.025ZM112.193 40.8653L110.442 39.8991C110.25 40.2465 110.11 40.3751 110.069 40.4064C110.054 40.4181 110.065 40.4067 110.102 40.3935C110.141 40.3797 110.183 40.3733 110.217 40.3733V42.3733V44.3733C112.037 44.3733 113.232 43.1216 113.944 41.8314L112.193 40.8653ZM110.217 42.3733V40.3733H96.9048V42.3733V44.3733H110.217V42.3733ZM108.181 40.8653L106.417 41.8065L106.423 41.819L106.43 41.8314L108.181 40.8653ZM108.181 33.5333L109.933 34.4994L109.939 34.487L109.946 34.4745L108.181 33.5333ZM119.257 31.3493L119.941 33.2289L121.583 32.6319L121.212 30.9247L119.257 31.3493ZM115.981 16.2693L115.106 14.4711L113.694 15.1587L114.027 16.6939L115.981 16.2693ZM123.885 12.4213L125.839 11.9946L125.297 9.50979L123.01 10.6231L123.885 12.4213ZM126.849 25.9933L124.895 26.42L124.898 26.4323L126.849 25.9933ZM125.705 36.4973L127.44 37.493L127.444 37.4862L127.448 37.4793L125.705 36.4973ZM121.181 40.8653L122.114 42.6345L122.126 42.6283L121.181 40.8653ZM109.377 47.3653V45.3653H107.377V47.3653H109.377ZM125.029 47.3653H127.029V45.3653H125.029V47.3653ZM125.029 54.3853V56.3853H127.029V54.3853H125.029ZM109.377 54.3853H107.377V56.3853H109.377V54.3853ZM110.157 42.3733V40.3733C110.191 40.3733 110.233 40.3797 110.272 40.3935C110.309 40.4067 110.32 40.4181 110.305 40.4064C110.264 40.3751 110.124 40.2465 109.933 39.8991L108.181 40.8653L106.43 41.8314C107.142 43.1216 108.337 44.3733 110.157 44.3733V42.3733ZM108.181 40.8653L109.946 39.9241C109.575 39.2277 109.349 38.3335 109.349 37.1733H107.349H105.349C105.349 38.8558 105.679 40.4229 106.417 41.8065L108.181 40.8653ZM107.349 37.1733H109.349C109.349 36.0105 109.576 35.1464 109.933 34.4994L108.181 33.5333L106.43 32.5671C105.678 33.9308 105.349 35.4934 105.349 37.1733H107.349ZM108.181 33.5333L109.946 34.4745C110.143 34.1063 110.287 33.9676 110.331 33.9331C110.347 33.9203 110.334 33.9337 110.292 33.949C110.248 33.9652 110.199 33.9733 110.157 33.9733V31.9733V29.9733C108.302 29.9733 107.112 31.2876 106.417 32.5921L108.181 33.5333ZM110.157 31.9733V33.9733H115.097V31.9733V29.9733H110.157V31.9733ZM115.097 31.9733V33.9733C116.886 33.9733 118.518 33.7464 119.941 33.2289L119.257 31.3493L118.574 29.4697C117.709 29.7842 116.568 29.9733 115.097 29.9733V31.9733ZM119.257 31.3493L121.212 30.9247L117.936 15.8447L115.981 16.2693L114.027 16.6939L117.303 31.7739L119.257 31.3493ZM115.981 16.2693L116.857 18.0675L124.761 14.2195L123.885 12.4213L123.01 10.6231L115.106 14.4711L115.981 16.2693ZM123.885 12.4213L121.932 12.848L124.896 26.42L126.849 25.9933L128.803 25.5666L125.839 11.9946L123.885 12.4213ZM126.849 25.9933L124.898 26.4323C125.182 27.6944 125.317 28.8637 125.317 29.9453H127.317H129.317C129.317 28.5309 129.141 27.0655 128.801 25.5543L126.849 25.9933ZM127.317 29.9453H125.317C125.317 32.1062 124.849 33.9442 123.963 35.5153L125.705 36.4973L127.448 37.4793C128.712 35.2371 129.317 32.707 129.317 29.9453H127.317ZM125.705 36.4973L123.971 35.5016C123.087 37.042 121.855 38.2353 120.237 39.1023L121.181 40.8653L122.126 42.6283C124.39 41.4153 126.175 39.6966 127.44 37.493L125.705 36.4973ZM121.181 40.8653L120.249 39.0962C118.672 39.9275 116.8 40.3733 114.577 40.3733V42.3733V44.3733C117.347 44.3733 119.878 43.8137 122.114 42.6344L121.181 40.8653ZM114.577 42.3733V40.3733H110.157V42.3733V44.3733H114.577V42.3733ZM109.377 47.3653V49.3653H125.029V47.3653V45.3653H109.377V47.3653ZM125.029 47.3653H123.029V54.3853H125.029H127.029V47.3653H125.029ZM125.029 54.3853V52.3853H109.377V54.3853V56.3853H125.029V54.3853ZM109.377 54.3853H111.377V47.3653H109.377H107.377V54.3853H109.377ZM130.73 8.88529L130.21 6.95406L128.73 7.35253V8.88529H130.73ZM138.842 6.70129H140.842V4.09161L138.322 4.77006L138.842 6.70129ZM138.842 41.3853L139.374 43.3134L140.842 42.9086V41.3853H138.842ZM130.73 43.6213H128.73V46.2472L131.262 45.5494L130.73 43.6213ZM130.73 8.88529L131.25 10.8165L139.362 8.63252L138.842 6.70129L138.322 4.77006L130.21 6.95406L130.73 8.88529ZM138.842 6.70129H136.842V41.3853H138.842H140.842V6.70129H138.842ZM138.842 41.3853L138.311 39.4572L130.199 41.6932L130.73 43.6213L131.262 45.5494L139.374 43.3134L138.842 41.3853ZM130.73 43.6213H132.73V8.88529H130.73H128.73V43.6213H130.73ZM146.964 40.3453L146.215 38.491L146.201 38.4964L146.964 40.3453ZM149.408 39.3573L150.158 41.2115L151.408 40.706V39.3573H149.408ZM149.408 17.2573L149.024 15.2946L147.408 15.6111V17.2573H149.408ZM157.104 15.7493H159.104V13.3194L156.72 13.7866L157.104 15.7493ZM155.232 45.2853L153.559 44.19L153.554 44.1969L153.55 44.2038L155.232 45.2853ZM150.084 49.5493L149.321 47.7005L149.321 47.7008L150.084 49.5493ZM142.908 52.5133L141.111 53.3906L141.935 55.0791L143.672 54.3618L142.908 52.5133ZM138.644 43.7773L137.881 41.9284L135.913 42.7406L136.847 44.6546L138.644 43.7773ZM146.964 40.3453L147.714 42.1995L150.158 41.2115L149.408 39.3573L148.659 37.5031L146.215 38.4911L146.964 40.3453ZM149.408 39.3573H151.408V17.2573H149.408H147.408V39.3573H149.408ZM149.408 17.2573L149.793 19.22L157.489 17.712L157.104 15.7493L156.72 13.7866L149.024 15.2946L149.408 17.2573ZM157.104 15.7493H155.104V38.5253H157.104H159.104V15.7493H157.104ZM157.104 38.5253H155.104C155.104 40.7926 154.565 42.6531 153.559 44.19L155.232 45.2853L156.906 46.3806C158.396 44.1042 159.104 41.458 159.104 38.5253H157.104ZM155.232 45.2853L153.55 44.2038C152.528 45.7929 151.137 46.9511 149.321 47.7005L150.084 49.5493L150.847 51.398C153.399 50.3448 155.44 48.6604 156.914 46.3668L155.232 45.2853ZM150.084 49.5493L149.321 47.7008L142.145 50.6648L142.908 52.5133L143.672 54.3618L150.848 51.3978L150.084 49.5493ZM142.908 52.5133L144.705 51.636L140.441 42.9L138.644 43.7773L136.847 44.6546L141.111 53.3906L142.908 52.5133ZM138.644 43.7773L139.407 45.6262L147.727 42.1942L146.964 40.3453L146.201 38.4964L137.881 41.9284L138.644 43.7773Z" fill="white" mask="url(#path-1-outside-1_2_790)"/>
</svg>
