<svg width="40" height="40" viewBox="0 0 40 40" fill="none" xmlns="http://www.w3.org/2000/svg">
<rect width="40" height="40" rx="8" fill="url(#paint0_linear_4231_26856)"/>
<path d="M22.1787 7.14404V12.6733C22.1787 13.1303 22.1776 13.5242 22.2197 13.8374C22.2639 14.1648 22.3636 14.4793 22.6182 14.7339C22.8729 14.9883 23.1871 15.0883 23.5146 15.1323C23.828 15.1744 24.2216 15.1733 24.6787 15.1733H29.998C29.9992 15.3335 30 15.5092 30 15.7017V25.1421C30 28.7784 29.9997 30.5974 28.9014 31.7271C27.803 32.8564 26.0352 32.8569 22.5 32.8569H17.5C13.9648 32.8569 12.197 32.8564 11.0986 31.7271C10.0003 30.5974 10 28.7784 10 25.1421V14.8569C10 11.2206 10.0005 9.40172 11.0986 8.27197C12.197 7.1425 13.9647 7.14209 17.5 7.14209H21.6787C21.8606 7.14209 22.0266 7.14294 22.1787 7.14404ZM14.2861 25.4282C13.7338 25.4282 13.2861 25.8759 13.2861 26.4282C13.2864 26.9803 13.734 27.4282 14.2861 27.4282H19.2861C19.8381 27.428 20.2859 26.9802 20.2861 26.4282C20.2861 25.8761 19.8382 25.4284 19.2861 25.4282H14.2861ZM14.2861 20.2847C13.7339 20.2847 13.2863 20.7325 13.2861 21.2847C13.2861 21.837 13.7338 22.2847 14.2861 22.2847H21.7861C22.3382 22.2844 22.7861 21.8368 22.7861 21.2847C22.786 20.7327 22.3381 20.2849 21.7861 20.2847H14.2861ZM23.1787 7.20166C23.3597 7.23065 23.5182 7.27334 23.6709 7.33838C24.1303 7.53413 24.4923 7.90578 25.2148 8.64893L28.5352 12.0649C29.2575 12.8079 29.6193 13.1795 29.8096 13.6519C29.8744 13.813 29.9162 13.9811 29.9443 14.1733H24.6787C24.1936 14.1733 23.8796 14.1721 23.6484 14.1411C23.4325 14.1121 23.3634 14.0648 23.3252 14.0269C23.2872 13.9888 23.2401 13.9199 23.2109 13.7036C23.1799 13.4725 23.1787 13.1582 23.1787 12.6733V7.20166Z" fill="#1D60A4"/>
<defs>
<linearGradient id="paint0_linear_4231_26856" x1="40" y1="40" x2="0" y2="0" gradientUnits="userSpaceOnUse">
<stop stop-color="#F4D034"/>
<stop offset="0.5" stop-color="#F4D034" stop-opacity="0"/>
</linearGradient>
</defs>
</svg>
