<svg width="32" height="32" viewBox="0 0 32 32" fill="none" xmlns="http://www.w3.org/2000/svg">
<path d="M6.66797 12.2917C6.66797 8.38296 6.66797 6.42858 7.69309 5.21429C8.71822 4 10.3681 4 13.668 4H18.3346C21.6345 4 23.2844 4 24.3095 5.21429C25.3346 6.42858 25.3346 8.38296 25.3346 12.2917V21.7271C25.3346 25.4353 25.3346 27.2894 24.3496 27.8565C23.3646 28.4236 22.1338 27.2781 19.6723 24.9871L18.8845 24.2539C17.5004 22.9657 16.8083 22.3216 16.0013 22.3216C15.1943 22.3216 14.5022 22.9657 13.1181 24.2539L12.3303 24.9871C9.86877 27.2781 8.63799 28.4236 7.65298 27.8565C6.66797 27.2894 6.66797 25.4353 6.66797 21.7271V12.2917Z" stroke="white"/>
</svg>
