<svg width="25" height="25" viewBox="0 0 25 25" fill="none" xmlns="http://www.w3.org/2000/svg">
<path d="M7.34375 15.2513L6.87316 20.1383C6.79911 20.9074 7.58796 21.4663 8.28897 21.1415L12.0796 19.3851C12.3462 19.2616 12.6538 19.2616 12.9204 19.3851L16.711 21.1415C17.412 21.4663 18.2009 20.9074 18.1268 20.1383L17.6968 15.6724C17.6709 15.4032 17.7551 15.135 17.9302 14.929L20.8475 11.4959C21.3153 10.9454 21.0323 10.095 20.3279 9.93461M5.23438 12.7691L4.17969 11.528C3.69949 10.9629 3.99003 10.0899 4.71308 9.92527L8.87722 8.97714C9.15467 8.91396 9.39208 8.73558 9.52996 8.48666L11.6252 4.70415C12.0059 4.0169 12.9941 4.0169 13.3748 4.70415L15.47 8.48666C15.6079 8.73558 15.8453 8.91396 16.1228 8.97714L17.2338 9.23011" stroke="#F4D034" stroke-width="2" stroke-linecap="round"/>
</svg>
