<svg width="56" height="59" viewBox="0 0 56 59" fill="none" xmlns="http://www.w3.org/2000/svg">
<path d="M26.4949 0.562543C27.2703 -0.187525 28.5007 -0.187524 29.2761 0.562543L34.5992 5.71217C35.0426 6.14109 35.6591 6.3414 36.2699 6.25501L43.6033 5.21774C44.6715 5.06666 45.667 5.78993 45.8533 6.85248L47.133 14.1475C47.2396 14.7551 47.6206 15.2795 48.1655 15.5687L54.7081 19.04C55.661 19.5456 56.0413 20.7158 55.5675 21.685L52.3149 28.339C52.0439 28.8932 52.0439 29.5414 52.3149 30.0956L55.5675 36.7496C56.0413 37.7187 55.661 38.889 54.7081 39.3946L48.1655 42.8659C47.6206 43.155 47.2396 43.6795 47.133 44.2871L45.8533 51.5821C45.667 52.6446 44.6715 53.3679 43.6033 53.2168L36.2699 52.1796C35.6591 52.0932 35.0426 52.2935 34.5992 52.7224L29.2761 57.872C28.5007 58.6221 27.2703 58.6221 26.4949 57.872L21.1718 52.7224C20.7284 52.2935 20.1119 52.0932 19.5011 52.1796L12.1677 53.2168C11.0995 53.3679 10.104 52.6446 9.91765 51.5821L8.63801 44.2871C8.53142 43.6795 8.1504 43.155 7.60546 42.8659L1.06294 39.3946C0.109984 38.889 -0.27026 37.7187 0.203503 36.7496L3.45614 30.0956C3.72706 29.5414 3.72706 28.8932 3.45614 28.339L0.203503 21.685C-0.27026 20.7158 0.109983 19.5456 1.06294 19.04L7.60546 15.5687C8.1504 15.2795 8.53142 14.7551 8.63801 14.1475L9.91765 6.85248C10.104 5.78993 11.0995 5.06666 12.1677 5.21774L19.5011 6.25501C20.1119 6.3414 20.7284 6.14109 21.1718 5.71217L26.4949 0.562543Z" fill="#E46962"/>
</svg>
